<svg fill="#CE2029" height="335.88" viewBox="0 0 427.5 335.88" width="427.5"
    xmlns="http://www.w3.org/2000/svg">
    <g transform="translate(-36.25 -82.06)">
        <path d="m222.43 176.61v.01l.01-.01z"/>
        <path d="m222.43 176.61v.01h55.14v-.01z"/>
        <path d="m434.11 198.23c13.09-11.37 21-27.23 21-47.19 0-41.75-34.14-68.98-76.19-68.98h-156.49v94.55h.01l55.13-42.9v.08h101.35c12.75 0 21.05 8.95 21.05 21.35s-8.65 21.4-21.05 21.4h-101.35v.08h-55.14v-.01h-.02l-65.5 107.22-65.5-107.22h-55.16v241.33h55.16v-140.32l62.4 102.39h6.2l62.4-102.39v140.32h55.16v-94.55h108.26c43.09 0 77.92-27.92 77.92-70.66 0-24.51-11.75-43.09-29.64-54.5zm-48.28 73.47h-108.26v-46.2h108.26c13.79 0 22.74 9.64 22.74 23.08s-8.95 23.12-22.74 23.12z"/>
    </g>
</svg>